<svg xmlns="http://www.w3.org/2000/svg" xmlns:xlink="http://www.w3.org/1999/xlink" width="500" zoomAndPan="magnify" viewBox="0 0 375 374.999991" height="500" preserveAspectRatio="xMidYMid meet" version="1.0"><defs><g/><clipPath id="ef30b93542"><path d="M 119.308594 140 L 188 140 L 188 200.019531 L 119.308594 200.019531 Z M 119.308594 140 " clip-rule="nonzero"/></clipPath><clipPath id="a7a73085bc"><path d="M 187 108.519531 L 255.808594 108.519531 L 255.808594 169 L 187 169 Z M 187 108.519531 " clip-rule="nonzero"/></clipPath></defs><g clip-path="url(#ef30b93542)"><path fill="#ffffff" d="M 165.230469 182.664062 L 165.230469 190.964844 L 127.636719 173.5 L 127.636719 166.765625 L 165.230469 149.296875 L 165.230469 157.601562 L 136.800781 170.054688 L 136.800781 170.210938 Z M 187.558594 140.074219 L 124.6875 140.074219 C 121.71875 140.074219 119.3125 142.480469 119.3125 145.449219 L 119.3125 194.816406 C 119.3125 197.785156 121.71875 200.191406 124.6875 200.191406 L 170.105469 200.191406 L 187.558594 140.074219 " fill-opacity="1" fill-rule="nonzero"/></g><g clip-path="url(#a7a73085bc)"><path fill="#000000" d="M 247.378906 142.210938 L 209.785156 159.441406 L 209.785156 151.136719 L 238.839844 138.683594 L 238.839844 138.527344 L 209.785156 126.074219 L 209.785156 117.773438 L 247.378906 135.003906 Z M 205.011719 108.546875 L 187.558594 168.664062 L 250.328125 168.664062 C 253.292969 168.664062 255.699219 166.257812 255.699219 163.289062 L 255.699219 113.921875 C 255.699219 110.953125 253.292969 108.546875 250.328125 108.546875 L 205.011719 108.546875 " fill-opacity="1" fill-rule="nonzero"/></g><g fill="#ffffff" fill-opacity="1"><g transform="translate(81.695427, 238.482378)"><g><path d="M 20.09375 0 L 17.0625 -14.25 L 16.9375 -14.25 L 13.90625 0 L 5.640625 0 L 0.171875 -23.390625 L 7.984375 -23.390625 L 10.671875 -10.125 L 10.8125 -10.125 L 13.46875 -23.390625 L 20.875 -23.390625 L 23.703125 -10.125 L 23.828125 -10.125 L 26.34375 -23.390625 L 33.828125 -23.390625 L 28.359375 0 Z M 20.09375 0 "/></g></g></g><g fill="#ffffff" fill-opacity="1"><g transform="translate(115.69153, 238.482378)"><g><path d="M 11.328125 -18.359375 C 14.609375 -18.359375 17.113281 -17.585938 18.84375 -16.046875 C 20.582031 -14.503906 21.453125 -12.144531 21.453125 -8.96875 L 21.453125 -7.8125 L 7.984375 -7.8125 C 7.984375 -6.519531 8.269531 -5.546875 8.84375 -4.890625 C 9.425781 -4.234375 10.34375 -3.90625 11.59375 -3.90625 C 12.726562 -3.90625 13.5625 -4.144531 14.09375 -4.625 C 14.625 -5.101562 14.890625 -5.738281 14.890625 -6.53125 L 21.453125 -6.53125 C 21.453125 -4.351562 20.625 -2.648438 18.96875 -1.421875 C 17.3125 -0.203125 14.898438 0.40625 11.734375 0.40625 C 8.398438 0.40625 5.8125 -0.367188 3.96875 -1.921875 C 2.132812 -3.472656 1.21875 -5.820312 1.21875 -8.96875 C 1.21875 -12.050781 2.113281 -14.382812 3.90625 -15.96875 C 5.695312 -17.5625 8.171875 -18.359375 11.328125 -18.359375 Z M 11.59375 -14.046875 C 9.457031 -14.046875 8.269531 -13.035156 8.03125 -11.015625 L 14.625 -11.015625 C 14.625 -11.941406 14.351562 -12.675781 13.8125 -13.21875 C 13.28125 -13.769531 12.539062 -14.046875 11.59375 -14.046875 Z M 11.59375 -14.046875 "/></g></g></g><g fill="#ffffff" fill-opacity="1"><g transform="translate(138.366932, 238.482378)"><g><path d="M 8.84375 -16.28125 C 10.132812 -17.664062 11.8125 -18.359375 13.875 -18.359375 C 16.300781 -18.359375 18.171875 -17.570312 19.484375 -16 C 20.796875 -14.425781 21.453125 -12.097656 21.453125 -9.015625 C 21.453125 -5.910156 20.796875 -3.5625 19.484375 -1.96875 C 18.171875 -0.382812 16.300781 0.40625 13.875 0.40625 C 11.375 0.40625 9.46875 -0.578125 8.15625 -2.546875 L 7.578125 0 L 2.078125 0 L 2.078125 -24.65625 L 8.84375 -24.65625 Z M 11.765625 -13.359375 C 10.765625 -13.359375 10.015625 -13 9.515625 -12.28125 C 9.015625 -11.570312 8.765625 -10.648438 8.765625 -9.515625 L 8.765625 -8.390625 C 8.765625 -7.265625 9.015625 -6.347656 9.515625 -5.640625 C 10.015625 -4.941406 10.765625 -4.59375 11.765625 -4.59375 C 13.710938 -4.59375 14.6875 -5.75 14.6875 -8.0625 L 14.6875 -9.859375 C 14.6875 -12.191406 13.710938 -13.359375 11.765625 -13.359375 Z M 11.765625 -13.359375 "/></g></g></g><g fill="#ffffff" fill-opacity="1"><g transform="translate(161.042334, 238.482378)"><g><path d="M 15.984375 -17.40625 L 15.984375 0 L 8.46875 0 L 8.46875 -17.40625 L 0.78125 -17.40625 L 0.78125 -23.390625 L 23.625 -23.390625 L 23.625 -17.40625 Z M 15.984375 -17.40625 "/></g></g></g><g fill="#ffffff" fill-opacity="1"><g transform="translate(185.587517, 238.482378)"><g><path d="M 11.328125 -18.359375 C 14.609375 -18.359375 17.113281 -17.585938 18.84375 -16.046875 C 20.582031 -14.503906 21.453125 -12.144531 21.453125 -8.96875 L 21.453125 -7.8125 L 7.984375 -7.8125 C 7.984375 -6.519531 8.269531 -5.546875 8.84375 -4.890625 C 9.425781 -4.234375 10.34375 -3.90625 11.59375 -3.90625 C 12.726562 -3.90625 13.5625 -4.144531 14.09375 -4.625 C 14.625 -5.101562 14.890625 -5.738281 14.890625 -6.53125 L 21.453125 -6.53125 C 21.453125 -4.351562 20.625 -2.648438 18.96875 -1.421875 C 17.3125 -0.203125 14.898438 0.40625 11.734375 0.40625 C 8.398438 0.40625 5.8125 -0.367188 3.96875 -1.921875 C 2.132812 -3.472656 1.21875 -5.820312 1.21875 -8.96875 C 1.21875 -12.050781 2.113281 -14.382812 3.90625 -15.96875 C 5.695312 -17.5625 8.171875 -18.359375 11.328125 -18.359375 Z M 11.59375 -14.046875 C 9.457031 -14.046875 8.269531 -13.035156 8.03125 -11.015625 L 14.625 -11.015625 C 14.625 -11.941406 14.351562 -12.675781 13.8125 -13.21875 C 13.28125 -13.769531 12.539062 -14.046875 11.59375 -14.046875 Z M 11.59375 -14.046875 "/></g></g></g><g fill="#ffffff" fill-opacity="1"><g transform="translate(208.262919, 238.482378)"><g><path d="M 11.328125 -18.359375 C 14.265625 -18.359375 16.644531 -17.726562 18.46875 -16.46875 C 20.300781 -15.21875 21.21875 -13.296875 21.21875 -10.703125 L 14.65625 -10.703125 C 14.65625 -12.742188 13.546875 -13.765625 11.328125 -13.765625 C 9.097656 -13.765625 7.984375 -12.484375 7.984375 -9.921875 L 7.984375 -7.984375 C 7.984375 -5.453125 9.140625 -4.1875 11.453125 -4.1875 C 13.765625 -4.1875 14.921875 -5.226562 14.921875 -7.3125 L 21.21875 -7.3125 C 21.21875 -4.707031 20.300781 -2.769531 18.46875 -1.5 C 16.644531 -0.226562 14.265625 0.40625 11.328125 0.40625 C 8.171875 0.40625 5.695312 -0.382812 3.90625 -1.96875 C 2.113281 -3.5625 1.21875 -5.894531 1.21875 -8.96875 C 1.21875 -12.050781 2.113281 -14.382812 3.90625 -15.96875 C 5.695312 -17.5625 8.171875 -18.359375 11.328125 -18.359375 Z M 11.328125 -18.359375 "/></g></g></g><g fill="#ffffff" fill-opacity="1"><g transform="translate(230.93832, 238.482378)"><g><path d="M 8.8125 -16.078125 C 9.53125 -16.804688 10.375 -17.367188 11.34375 -17.765625 C 12.320312 -18.160156 13.347656 -18.359375 14.421875 -18.359375 C 16.503906 -18.359375 18.066406 -17.78125 19.109375 -16.625 C 20.148438 -15.46875 20.671875 -13.800781 20.671875 -11.625 L 20.671875 0 L 13.90625 0 L 13.90625 -10.8125 C 13.90625 -11.582031 13.707031 -12.195312 13.3125 -12.65625 C 12.914062 -13.125 12.351562 -13.359375 11.625 -13.359375 C 10.789062 -13.359375 10.113281 -13.085938 9.59375 -12.546875 C 9.070312 -12.003906 8.8125 -11.335938 8.8125 -10.546875 L 8.8125 0 L 2.046875 0 L 2.046875 -24.65625 L 8.8125 -24.65625 Z M 8.8125 -16.078125 "/></g></g></g><g fill="#ffffff" fill-opacity="1"><g transform="translate(253.613722, 238.482378)"><g><path d="M 2.859375 0 L 2.859375 -23.390625 L 10.375 -23.390625 L 10.375 0 Z M 2.859375 0 "/></g></g></g><g fill="#ffffff" fill-opacity="1"><g transform="translate(266.838205, 238.482378)"><g><path d="M 12.640625 -23.390625 C 20.828125 -23.390625 24.921875 -19.492188 24.921875 -11.703125 C 24.921875 -3.898438 20.828125 0 12.640625 0 L 2.515625 0 L 2.515625 -23.390625 Z M 10.03125 -5.609375 L 12.515625 -5.609375 C 15.660156 -5.609375 17.234375 -7.296875 17.234375 -10.671875 L 17.234375 -12.71875 C 17.234375 -16.09375 15.660156 -17.78125 12.515625 -17.78125 L 10.03125 -17.78125 Z M 10.03125 -5.609375 "/></g></g></g></svg>